<svg width="48" height="48" viewBox="0 0 48 48" fill="none" xmlns="http://www.w3.org/2000/svg">
<path d="M23.2958 29.547L23.9031 29.0361C25.7081 27.5176 27.0026 25.4808 27.6109 23.2018C28.2193 20.9229 28.1121 18.5119 27.304 16.2959C26.4958 14.0798 25.0258 12.1659 23.0932 10.8136C21.1605 9.46124 18.8588 8.7359 16.5 8.7359C14.1412 8.7359 11.8394 9.46124 9.90681 10.8136C7.97418 12.1659 6.50414 14.0798 5.69599 16.2959C4.88785 18.5119 4.78068 20.9229 5.38904 23.2018C5.99739 25.4808 7.29183 27.5176 9.09686 29.0361L9.70421 29.547L8.98113 29.8743C6.00796 31.2197 3.44947 33.337 1.57166 36.0061L23.2958 29.547ZM23.2958 29.547L24.0188 29.8743M23.2958 29.547L24.0188 29.8743M24.0188 29.8743C26.9921 31.2198 29.5507 33.3372 31.4285 36.0064L31.4357 36.0166L31.4433 36.0264C31.5892 36.2133 31.6956 36.4278 31.756 36.6571C31.8165 36.8863 31.8297 37.1255 31.7949 37.36C31.7601 37.5945 31.678 37.8195 31.5536 38.0213C31.4293 38.2232 31.2652 38.3976 31.0713 38.5341C30.8775 38.6706 30.6579 38.7663 30.426 38.8153C30.194 38.8644 29.9545 38.8658 29.722 38.8195C29.4895 38.7732 29.2688 38.6801 29.0734 38.5459C28.8779 38.4117 28.7118 38.2392 28.585 38.0389L28.5786 38.0287L28.5717 38.0189C27.211 36.0809 25.4036 34.4989 23.3024 33.4068C21.2013 32.3147 18.868 31.7446 16.5 31.7446C14.1319 31.7446 11.7987 32.3147 9.69752 33.4068C7.59634 34.4989 5.789 36.0809 4.42827 38.0189L4.42716 38.0205C4.2672 38.2502 4.05392 38.4378 3.80561 38.567C3.55729 38.6962 3.28135 38.7633 3.00142 38.7625L2.99836 38.7625C2.63935 38.7637 2.28905 38.652 1.99698 38.4432L1.99458 38.4415M24.0188 29.8743L1.99458 38.4415M1.99458 38.4415C1.61601 38.1743 1.35888 37.7678 1.2796 37.3112C1.20034 36.8548 1.30529 36.3856 1.57142 36.0064L1.99458 38.4415ZM46.2901 38.439L46.2901 38.4391C46.4786 38.3083 46.6393 38.1414 46.7628 37.948C46.8863 37.7547 46.9701 37.5386 47.0093 37.3126C47.0486 37.0865 47.0425 36.8549 46.9915 36.6312C46.9404 36.4075 46.8454 36.1962 46.712 36.0095L46.7098 36.0064C44.832 33.3372 42.2734 31.2198 39.3001 29.8743L38.575 29.5461L39.1853 29.0353C40.9952 27.5204 42.2942 25.4845 42.9055 23.2048C43.5168 20.9252 43.4107 18.5125 42.6016 16.2953C41.7924 14.0781 40.3197 12.1641 38.3838 10.814C36.4479 9.46383 34.1429 8.74313 31.7827 8.74998L31.7804 8.74999C30.7301 8.74824 29.6846 8.89327 28.6744 9.18087L28.6654 9.18343L28.6654 9.18334C28.441 9.24272 28.2307 9.34615 28.0466 9.48759C27.8626 9.62904 27.7086 9.80568 27.5935 10.0072C27.4783 10.2088 27.4045 10.4312 27.3762 10.6616C27.3478 10.892 27.3656 11.1257 27.4285 11.3491C27.4914 11.5726 27.5981 11.7812 27.7424 11.9631L27.3639 12.2634L27.7424 11.9631C27.8867 12.1449 28.0657 12.2961 28.269 12.4081C28.4723 12.52 28.6959 12.5904 28.9267 12.6152C29.1575 12.6399 29.3909 12.6184 29.6133 12.5521L29.6191 12.5504L29.6191 12.5504C30.3225 12.3497 31.0506 12.2486 31.7822 12.25M46.2901 38.439L43.4437 38.3062L43.8524 38.0182C43.8523 38.018 43.8521 38.0178 43.852 38.0176C42.4885 36.0833 40.6807 34.5046 38.5805 33.414C36.4801 32.3232 34.1485 31.7526 31.7818 31.75H31.7812C31.3171 31.75 30.872 31.5656 30.5438 31.2374C30.2156 30.9092 30.0312 30.4641 30.0312 30C30.0312 29.5359 30.2156 29.0907 30.5438 28.7625C30.872 28.4344 31.3171 28.25 31.7812 28.25C33.903 28.25 35.9378 27.4071 37.4381 25.9068C38.9384 24.4065 39.7812 22.3717 39.7812 20.25C39.7812 18.1282 38.9384 16.0934 37.4381 14.5931C35.938 13.0931 33.9036 12.2502 31.7822 12.25M46.2901 38.439L46.2842 38.4432M46.2901 38.439L46.2842 38.4432M31.7822 12.25L31.7812 12.75V12.25C31.7815 12.25 31.7819 12.25 31.7822 12.25ZM39.5062 29.4187L39.7124 28.9632C39.7811 28.9943 39.8497 29.0258 39.918 29.0577C39.7838 29.181 39.6465 29.3014 39.5062 29.4187ZM39.5062 29.4187L39.8272 29.8021C39.8862 29.7527 39.9448 29.7027 40.0029 29.6523C39.8386 29.5721 39.6731 29.4942 39.5062 29.4187ZM46.2842 38.4432C45.9923 38.6518 45.6423 38.7635 45.2835 38.7625L46.2842 38.4432ZM9.84823 15.8054C8.96918 17.121 8.49998 18.6677 8.49998 20.25C8.49998 22.3717 9.34284 24.4065 10.8431 25.9068C12.3434 27.4071 14.3783 28.25 16.5 28.25C18.0822 28.25 19.629 27.7808 20.9445 26.9017C22.2601 26.0227 23.2855 24.7733 23.891 23.3114C24.4965 21.8496 24.6549 20.2411 24.3463 18.6893C24.0376 17.1374 23.2757 15.7119 22.1568 14.5931C21.038 13.4743 19.6126 12.7124 18.0607 12.4037C16.5089 12.095 14.9003 12.2534 13.4385 12.8589C11.9767 13.4644 10.7273 14.4898 9.84823 15.8054Z" fill="#4CAF4F" stroke="#4CAF4F"/>
</svg>
