<svg width="34" height="30" viewBox="0 0 34 30" fill="none" xmlns="http://www.w3.org/2000/svg">
<path d="M17.9035 9.39382L17.9033 14.4167V14.4168V14.4752C17.9033 14.5917 17.9183 14.7047 17.9465 14.8125L17.8987 15.6302L17.8961 15.6742C17.8849 15.8659 17.8103 16.0335 17.6841 16.1598L19.1267 15.2148C19.0445 15.2013 18.9624 15.1722 18.8805 15.1276L18.4843 14.9119V14.4752V14.4168V9.39382M17.9035 9.39382V9.39379L18.1939 9.3938L18.4843 9.39382M17.9035 9.39382C17.9035 9.55425 18.0338 9.68423 18.1939 9.68423C18.3543 9.68423 18.4843 9.55394 18.4843 9.39382M17.9035 9.39382H18.1939H18.4843M12.2832 8.94484L12.2833 8.94487L12.2832 8.94484ZM12.2832 8.94484C12.0702 9.3159 11.5585 9.45443 11.1849 9.2398L12.2832 8.94484ZM10.8522 9.81753L10.8515 9.81717C10.5772 9.65879 10.3794 9.39934 10.2975 9.0953L10.2974 9.09485L10.2973 9.09475L10.2969 9.09321C10.2304 8.84269 10.2472 8.5806 10.343 8.34314V8.14857C10.1722 8.44356 10.1265 8.78777 10.2148 9.1169C10.3027 9.44582 10.514 9.72076 10.8095 9.89204L10.8522 9.81753ZM18.0956 16.5709L18.1557 16.631L18.0956 16.5709L18.0949 16.5716C17.8441 16.8219 17.5077 16.9601 17.1544 16.9601C17.1544 16.9601 17.1544 16.9601 17.1544 16.9601C16.6743 16.9601 16.2531 16.7049 16.0193 16.3229C15.9953 16.3352 15.971 16.3471 15.9464 16.3585L18.0956 16.5709ZM10.9194 8.4835C10.8377 8.62521 10.8165 8.78668 10.8587 8.94393C10.8587 8.94397 10.8587 8.94402 10.8587 8.94407L10.8587 8.94419L10.8589 8.94481C10.9007 9.10117 10.9991 9.23073 11.1419 9.31417C11.142 9.3142 11.142 9.31423 11.1421 9.31426L10.9194 8.4835Z" fill="#4CAF4F" stroke="#4CAF4F" stroke-width="1.33333"/>
<path d="M9.12519 21.7918C8.94661 21.8992 8.71572 21.8413 8.60899 21.6629C8.50203 21.4848 8.55999 21.2537 8.73786 21.1467L9.12519 21.7918ZM4.74679 17.4271C4.76143 17.4007 4.77513 17.376 4.78781 17.3532C4.83906 17.2609 4.87376 17.1983 4.8877 17.1732L4.96349 17.2132C4.91667 17.2975 4.87073 17.3803 4.82566 17.4615C4.79926 17.4515 4.77291 17.4401 4.74679 17.4271ZM15.1553 19.7211C15.3075 19.6297 15.4149 19.485 15.4578 19.3133C15.5007 19.1418 15.4741 18.9634 15.3829 18.8112L15.1553 19.7211Z" fill="#4CAF4F" stroke="#4CAF4F" stroke-width="1.33333"/>
<path d="M20.8527 19.0933C20.7587 19.035 20.6731 18.966 20.5975 18.888L19.8782 18.5117L19.8781 18.5116L19.8381 18.4907C19.7243 18.4311 19.6083 18.4029 19.4964 18.4026L20.8527 19.0933ZM19.1716 17.862C19.1718 17.862 19.1719 17.8619 19.172 17.8619L19.2274 18.0842L19.2274 18.0842L19.3125 18.4256L19.3124 18.4256L19.1716 17.862ZM23.3871 24.7857C23.387 24.7856 23.3868 24.7855 23.3867 24.7854L23.3871 24.7857ZM18.845 21.1872L18.8463 21.188L18.845 21.1872Z" fill="#4CAF4F" stroke="#4CAF4F" stroke-width="1.33333"/>
</svg>
