<svg width="55" height="48" viewBox="0 0 55 48" fill="none" xmlns="http://www.w3.org/2000/svg">
<g filter="url(#filter0_d_1_2812)">
<g clip-path="url(#clip0_1_2812)">
<path d="M47.9965 13.4115C47.9965 13.4453 47.9965 13.4876 47.9877 13.5129C47.9437 13.8426 47.9437 14.1723 47.9701 14.5105C47.9877 14.595 48.0053 14.6795 48.0758 14.7472C48.1903 14.874 48.3664 14.8486 48.4369 14.6964C48.4722 14.6204 48.4722 14.5443 48.4545 14.4682C48.3664 14.147 48.3488 13.8088 48.34 13.4791C48.34 13.4622 48.34 13.4369 48.34 13.4115C48.4369 13.4031 48.525 13.3946 48.6042 13.3946C48.6659 13.3861 48.7188 13.3777 48.7628 13.3523C48.8949 13.2847 48.8949 13.141 48.754 13.0734C48.7011 13.048 48.6307 13.0396 48.569 13.0396C48.3488 13.048 48.1287 13.048 47.9084 13.048C47.8292 13.048 47.7499 13.0565 47.6706 13.0649C47.6266 13.0734 47.5737 13.0734 47.5385 13.0987C47.4768 13.1241 47.4417 13.1664 47.4417 13.2255C47.4504 13.2847 47.4768 13.3185 47.5385 13.3439C47.5737 13.3692 47.6178 13.3777 47.6618 13.3777C47.7675 13.3861 47.882 13.4031 47.9965 13.4115ZM50.4186 13.8004C50.4186 13.8088 50.4274 13.8173 50.4274 13.8173C50.4627 14.0455 50.4979 14.2653 50.5243 14.4851C50.5332 14.5612 50.542 14.6288 50.5948 14.688C50.7093 14.8317 50.8855 14.8148 50.9647 14.6626C51 14.5865 51.0087 14.5105 50.9912 14.4259C50.9383 14.1723 50.9119 13.9187 50.859 13.6736C50.8238 13.5214 50.7798 13.3777 50.7357 13.2424C50.7093 13.1579 50.6477 13.0987 50.542 13.0903C50.4363 13.0734 50.357 13.1241 50.3129 13.2002C50.2601 13.2678 50.2161 13.3354 50.1808 13.4115C50.1192 13.5468 50.0663 13.682 49.9959 13.8088C49.987 13.8426 49.9782 13.868 49.9606 13.8934C49.9519 13.8764 49.9431 13.868 49.9431 13.868C49.8285 13.6567 49.7228 13.4453 49.6083 13.2424C49.5907 13.2255 49.5819 13.2086 49.5731 13.1917C49.5203 13.1156 49.4586 13.0734 49.3617 13.0734C49.2736 13.0818 49.2031 13.1325 49.1592 13.2086C49.1415 13.2424 49.1415 13.2678 49.1327 13.3016C49.0975 13.5721 49.0534 13.8426 49.0182 14.1131C49.0006 14.2653 48.9918 14.4175 48.9918 14.5696C48.983 14.6034 48.9918 14.6457 49.0094 14.6795C49.027 14.7471 49.0799 14.7894 49.1503 14.7979C49.2384 14.8063 49.3 14.781 49.3265 14.7133C49.3529 14.6626 49.3617 14.6204 49.3705 14.5781C49.4058 14.4259 49.4322 14.2822 49.4586 14.1385C49.4762 14.054 49.485 13.9863 49.5115 13.8934C49.5291 13.9272 49.5466 13.9525 49.5643 13.9779C49.6435 14.0793 49.7228 14.1808 49.8197 14.2653C49.9166 14.3329 49.9959 14.3245 50.0751 14.2484C50.0928 14.2315 50.1016 14.223 50.1192 14.2061C50.1985 14.0878 50.2954 13.9694 50.3746 13.8511C50.3922 13.8342 50.401 13.8173 50.4186 13.8004Z" fill="#3A3B7B"/>
<path d="M30.1244 13.5776C30.0632 13.7383 30.0515 13.854 30.0798 13.9502C30.111 14.081 30.192 14.1238 30.302 14.0906C31.3366 13.845 33.6051 14.542 34.445 14.7362C34.6431 14.777 34.8042 14.5316 34.6691 14.3115C34.4718 14.0985 32.2043 13.1862 31.3391 13.1364C30.9999 13.118 30.3936 13.0346 30.1244 13.5776Z" fill="#3A3B7B"/>
<path d="M38.9904 10.6244C39.1006 10.6855 39.1622 10.7438 39.1927 10.8089C39.238 10.8942 39.2141 10.9533 39.1379 10.9835C38.4541 11.3038 37.5441 12.6829 37.1768 13.1585C37.0877 13.2679 36.8823 13.2044 36.8513 13.0244C36.8577 12.821 37.6643 11.3244 38.1145 10.9167C38.2915 10.7576 38.5837 10.4453 38.9904 10.6244Z" fill="#3A3B7B"/>
<path d="M33.5445 9.94553C33.6769 9.84971 33.8146 9.81614 33.8849 9.87841C34.9167 10.7253 35.4638 12.0664 35.8026 13.2942C35.8154 13.3228 35.8162 13.3639 35.806 13.4067C35.8017 13.4433 35.7739 13.482 35.7296 13.5119C35.6824 13.5449 35.6417 13.555 35.6225 13.5265C35.1703 12.9362 32.5875 10.6393 33.5445 9.94553Z" fill="#3A3B7B"/>
<path d="M11.6952 24.6286C11.9425 24.4519 12.2114 24.3048 12.4959 24.1906C12.7935 24.109 13.1107 24.1225 13.3997 24.2293C13.6885 24.336 13.9334 24.5301 14.0971 24.7823C14.2435 25.0338 14.3008 25.3242 14.2604 25.6097C14.2199 25.8952 14.084 26.1603 13.8729 26.3652C13.7093 26.5313 13.5235 26.676 13.3205 26.7956C12.4158 27.3565 11.5031 27.8867 10.5904 28.4476C10.4036 28.588 10.2055 28.714 9.99793 28.8242C9.68217 28.9753 9.32132 29.0158 8.97776 28.9386C8.6342 28.8615 8.32955 28.6715 8.11648 28.4016C7.95719 28.2104 7.82277 28.0014 7.71616 27.7791C6.8515 26.0348 5.95481 24.2982 5.12217 22.5231C4.73787 21.7548 4.42563 20.8711 4.12139 20.0181C3.98977 19.7703 3.96406 19.483 4.04976 19.2173C4.13545 18.9515 4.32577 18.7284 4.58025 18.5952C4.83473 18.4621 5.13327 18.4295 5.4124 18.5044C5.69152 18.5793 5.92921 18.7557 6.0749 18.9961C6.52271 19.5673 6.91911 20.174 7.25981 20.8096C8.12448 22.3464 8.94912 23.8832 9.78176 25.374C9.83024 25.4564 9.8837 25.5358 9.94188 25.6122C10.5686 25.3593 11.158 25.0286 11.6952 24.6286Z" fill="#3A3B7B"/>
<path d="M20.6354 24.0925C18.6579 26.3132 15.3433 25.7523 13.678 22.8938C12.4931 20.8652 12.2849 17.5149 14.8629 15.4017C15.4135 14.9593 16.0717 14.658 16.7764 14.5257C17.6404 14.4069 18.5214 14.5532 19.2936 14.9437C20.0657 15.3343 20.6895 15.9491 21.0757 16.7004C22.4848 19.1593 22.2847 22.2944 20.6354 24.0925ZM19.8347 18.9134C19.6247 18.3091 19.2032 17.7933 18.6418 17.4534C18.3242 17.2361 17.9382 17.1304 17.5489 17.1542C17.1595 17.178 16.7906 17.3298 16.5042 17.584C15.3593 18.5599 15.1191 20.8729 15.9517 22.2483C16.0579 22.4726 16.2137 22.6719 16.4085 22.8324C16.6033 22.9928 16.8323 23.1104 17.0793 23.177C17.3264 23.2436 17.5857 23.2576 17.839 23.218C18.0923 23.1783 18.3335 23.086 18.5458 22.9476C19.1664 22.4857 19.6217 21.8498 19.8484 21.1283C20.0751 20.4066 20.062 19.6352 19.8108 18.9211L19.8347 18.9134Z" fill="#3A3B7B"/>
<path d="M28.7055 19.8816C28.5031 19.9234 28.294 19.9259 28.0904 19.8889C27.887 19.8519 27.6932 19.7763 27.5207 19.6665C27.3697 19.5836 27.2397 19.4696 27.14 19.3327C27.0405 19.1958 26.9737 19.0395 26.9446 18.8748C26.9155 18.7103 26.9248 18.5415 26.9718 18.3808C27.0188 18.22 27.1024 18.0713 27.2164 17.9452C27.4152 17.6918 27.6973 17.5105 28.0171 17.4304C28.8518 17.1978 29.7112 17.0561 30.579 17.0078C30.7697 16.9865 30.9629 17.002 31.1472 17.0533C31.3316 17.1047 31.5033 17.1909 31.6525 17.3069C31.8016 17.4228 31.9252 17.5662 32.0158 17.7286C32.1064 17.891 32.1623 18.0692 32.1802 18.2526C32.4304 19.1536 32.4578 20.0982 32.2603 21.0112C31.5398 23.9619 29.0578 24.9762 26.2717 24.031C25.4896 23.7783 24.8039 23.3075 24.3022 22.6786C23.633 21.9214 23.1586 21.0239 22.9171 20.0584C22.7214 19.1986 22.7428 18.3064 22.9797 17.4563C23.2164 16.6061 23.6616 15.8226 24.2781 15.1712C24.8632 14.4633 25.6226 13.9061 26.4879 13.5499C27.0346 13.2606 27.6744 13.1784 28.2813 13.3194C28.4189 13.3559 28.5439 13.4272 28.6432 13.5257C28.7425 13.6243 28.8125 13.7465 28.846 13.8798C28.8795 14.013 28.8752 14.1525 28.8336 14.2836C28.792 14.4148 28.7147 14.5329 28.6095 14.6257C28.4096 14.7994 28.1924 14.9538 27.961 15.0867C27.2492 15.5218 26.6298 16.0823 26.1356 16.7388C25.8116 17.1636 25.5885 17.6514 25.482 18.1678C25.3755 18.6842 25.3881 19.2167 25.5191 19.728C25.7007 20.425 26.1036 21.0507 26.672 21.5183C28.4333 23.0552 30.7231 21.5721 30.3228 19.4743C29.7384 19.6127 29.226 19.7587 28.7055 19.8816Z" fill="#3A3B7B"/>
<path d="M39.466 24.2154C36.864 25.7523 33.9017 24.2154 33.2532 20.9881C32.7809 18.6829 33.6776 15.4556 36.816 14.2261C37.4838 13.9701 38.208 13.8803 38.9216 13.9648C39.779 14.1155 40.5655 14.5206 41.1702 15.123C41.7748 15.7255 42.1674 16.4949 42.2922 17.3228C42.8206 20.066 41.6197 22.9937 39.466 24.2154ZM40.3708 19.044C40.37 18.4057 40.1347 17.788 39.7062 17.2997C39.4772 16.9977 39.1461 16.7814 38.7695 16.6874C38.3927 16.5936 37.9938 16.628 37.6406 16.7849C36.2315 17.3689 35.2388 19.4897 35.5991 21.0496C35.6266 21.2944 35.7094 21.5305 35.8419 21.7414C35.9744 21.9522 36.1532 22.1327 36.366 22.2703C36.5787 22.4079 36.8202 22.4992 37.0736 22.5379C37.327 22.5766 37.5861 22.5617 37.8328 22.4942C38.5776 22.2445 39.2225 21.7778 39.6774 21.1592C40.1325 20.5407 40.3749 19.8012 40.3708 19.044Z" fill="#3A3B7B"/>
<path d="M44.9235 24.861C44.8843 25.1422 44.7302 25.3969 44.4952 25.5692C44.2602 25.7413 43.9636 25.8169 43.6706 25.7792C43.3776 25.7415 43.1122 25.5936 42.9328 25.3681C42.7533 25.1426 42.6746 24.8579 42.7139 24.5766C42.7531 24.2954 42.9072 24.0407 43.1422 23.8685C43.3772 23.6962 43.6738 23.6207 43.9668 23.6584C44.2598 23.6961 44.5252 23.8439 44.7047 24.0695C44.8841 24.295 44.9629 24.5797 44.9235 24.861ZM44.227 14.495C44.3793 14.2718 44.6027 14.1019 44.8638 14.0105C45.125 13.9191 45.4099 13.9111 45.6761 13.9879C45.9468 14.0529 46.1859 14.2051 46.3535 14.4192C46.5211 14.6332 46.607 14.896 46.5969 15.1636C46.5616 15.5927 46.4947 16.019 46.3967 16.4391C46.1325 17.8607 45.8763 19.2822 45.5961 20.6885C45.468 21.2494 45.2999 21.7873 45.1157 22.3559C45.0516 22.5337 44.9446 22.6943 44.8035 22.8246C44.7157 22.9227 44.6037 22.9979 44.4776 23.0433C44.3515 23.0888 44.2155 23.103 44.0822 23.0846C43.949 23.0662 43.8226 23.0159 43.715 22.9382C43.6073 22.8605 43.5219 22.758 43.4665 22.6402C43.3713 22.4289 43.3196 22.2019 43.3143 21.9717C43.3143 21.0189 43.3143 20.0584 43.3784 19.0978C43.4872 17.727 43.7013 16.3658 44.0189 15.0252C44.0563 14.8456 44.1267 14.6739 44.227 14.5181V14.495Z" fill="#3A3B7B"/>
<path fill-rule="evenodd" clip-rule="evenodd" d="M8.31263 31.0358C8.2181 31.2383 8.19218 31.4641 8.23837 31.6814C8.2691 31.9679 8.3366 32.2496 8.43933 32.5202C8.56759 32.8516 8.71111 33.1793 8.88807 33.5832C8.92876 33.6762 8.97129 33.7732 9.01579 33.8753C9.25443 34.4225 9.55386 35.1217 9.95326 36.1338C10.0663 36.4213 10.1667 36.7111 10.2678 37.003C10.3086 37.1209 10.3496 37.2392 10.3916 37.3578C10.5419 37.7793 10.8007 38.158 11.1436 38.4582C11.2893 38.6232 11.4824 38.7434 11.699 38.8035C11.9199 38.8648 12.1547 38.8609 12.3732 38.7924C12.5917 38.7237 12.7836 38.5936 12.924 38.4189C13.0616 38.2476 13.1435 38.0412 13.1594 37.8255C13.2487 37.4054 13.2182 36.9698 13.071 36.5648C12.8375 35.8924 12.5714 35.2189 12.2645 34.5602L12.2631 34.5573C11.7583 33.5267 11.2452 32.5033 10.7078 31.4795L10.7038 31.4723C10.5465 31.2056 10.3421 30.9671 10.0997 30.7677C9.94232 30.5896 9.72526 30.4696 9.48556 30.4282C9.24076 30.3859 8.98827 30.4285 8.77319 30.5484C8.56972 30.6599 8.40843 30.8305 8.31263 31.0358Z" fill="#3A3B7B"/>
<path fill-rule="evenodd" clip-rule="evenodd" d="M16.0224 28.4982C15.2309 28.3014 14.4043 28.2727 13.6002 28.4142C12.9774 28.473 12.3648 28.6109 11.9395 28.8841C11.7231 29.0231 11.5482 29.2015 11.4509 29.4284C11.3531 29.6565 11.3406 29.9174 11.4208 30.208C11.5672 30.7404 11.7572 31.2581 11.9467 31.7741L11.9773 31.8577L11.9781 31.8595C12.5484 33.3586 13.1241 34.8525 13.7051 36.3413C13.7729 36.576 13.8687 36.8023 13.9906 37.0158L13.9929 37.0197C14.154 37.285 14.3606 37.5222 14.604 37.7214C14.7257 37.8309 14.8762 37.9067 15.0395 37.9406C15.2043 37.9748 15.3757 37.9649 15.535 37.9119C15.6944 37.859 15.8356 37.765 15.9431 37.6403C16.049 37.5177 16.1182 37.3699 16.1437 37.2127C16.2487 36.7854 16.2151 36.3376 16.0472 35.9292C15.9948 35.7918 15.9537 35.6513 15.9104 35.5035C15.896 35.4542 15.8814 35.404 15.8659 35.353C17.1958 34.854 18.6109 34.1831 19.1085 32.6224C19.3033 32.0831 19.3195 31.4991 19.1549 30.9504C18.9901 30.4012 18.6521 29.9144 18.1873 29.557C17.5548 29.0568 16.8159 28.6954 16.0224 28.4982ZM13.8285 30.4125C13.8547 30.4052 13.881 30.3985 13.9075 30.3922C14.7733 30.2616 15.6591 30.4357 16.4019 30.8823C16.7292 31.1008 16.8633 31.3435 16.8863 31.5771C16.9101 31.8176 16.8189 32.0782 16.6359 32.3287C16.2901 32.802 15.6589 33.1807 15.0888 33.2513C14.6732 32.3327 14.2511 31.3769 13.8285 30.4125Z" fill="#3A3B7B"/>
<path d="M21.2991 26.8166C22.2417 26.3988 23.4092 26.3266 24.3228 26.6204C24.5529 26.6847 24.7525 26.8239 24.8876 27.014C25.0217 27.203 25.0836 27.4307 25.0629 27.6583C25.0616 27.8061 25.0238 27.9515 24.9527 28.0827C24.8803 28.2162 24.7755 28.331 24.6471 28.4175C24.5187 28.5039 24.3706 28.5594 24.2151 28.5793C24.0596 28.5992 23.9015 28.5828 23.754 28.5316L23.7428 28.5277L23.7322 28.5224C23.6568 28.4845 23.5766 28.456 23.4937 28.4374L23.4884 28.4363C22.8457 28.2724 22.2395 28.5439 22.0181 28.8775C21.9125 29.0365 21.8994 29.1971 21.9873 29.3431C22.0815 29.4995 22.3126 29.675 22.7801 29.8001C22.9087 29.834 23.0405 29.8667 23.1741 29.8999C23.5438 29.9918 23.928 30.0872 24.2995 30.2195L24.3009 30.22C26.0148 30.8459 26.653 32.1421 26.4345 33.3613C26.2184 34.567 25.1693 35.6642 23.5916 35.9231C23.0176 36.0452 22.4201 36.0214 21.8585 35.8541C21.2954 35.6862 20.7879 35.3799 20.3863 34.9655L20.3758 34.9547C20.2491 34.7985 20.1638 34.6151 20.126 34.4205C20.0912 34.2448 20.1095 34.0633 20.1787 33.8973C20.2474 33.7323 20.3637 33.5894 20.5138 33.4854C20.6723 33.3674 20.8634 33.2966 21.0634 33.2818C21.2628 33.2671 21.4623 33.3087 21.6373 33.4014C21.8121 33.4825 21.9748 33.5859 22.1207 33.7089L22.1235 33.7111C22.3817 33.9378 22.6941 33.9968 22.9937 33.9421C23.2977 33.8866 23.5835 33.714 23.7673 33.485C23.95 33.2574 24.0233 32.987 23.9363 32.7246C23.8487 32.4602 23.5854 32.164 23.007 31.9164C22.8558 31.8548 22.699 31.8051 22.5359 31.7567C22.492 31.7436 22.4472 31.7307 22.402 31.7175C22.2814 31.6824 22.1573 31.6462 22.0357 31.6063C21.9519 31.5789 21.8687 31.5529 21.7864 31.5271C21.5614 31.4568 21.3421 31.3883 21.131 31.2963C20.6715 31.1462 20.2746 30.8579 19.9992 30.4741C19.7227 30.0888 19.5836 29.628 19.6025 29.1606C19.604 28.0215 20.3515 27.2367 21.2991 26.8166Z" fill="#3A3B7B"/>
<path d="M33.2488 26.6953C33.066 26.6096 32.8639 26.5689 32.6607 26.5769C32.4575 26.585 32.2595 26.6414 32.0848 26.7412C31.9111 26.8403 31.7656 26.9792 31.6614 27.1453C31.5659 27.2852 31.4998 27.4417 31.4668 27.606C31.4338 27.7702 31.4346 27.9389 31.4691 28.1027C31.5031 28.3132 31.5408 28.5179 31.5781 28.7198C31.6398 29.0539 31.6998 29.3805 31.7394 29.7135L31.7409 29.7219C31.8311 30.2441 31.8783 30.7722 31.8825 31.3015L31.8829 31.309C31.9138 31.8805 31.7108 32.441 31.3177 32.8714L31.3115 32.879C31.1836 33.0363 31.0126 33.1564 30.8175 33.2258C30.6225 33.2952 30.4113 33.3112 30.2074 33.2719C30.0035 33.2326 29.815 33.1397 29.663 33.0034C29.511 32.8672 29.4013 32.6925 29.3466 32.5C29.2298 32.0942 29.1622 31.6768 29.145 31.2562L29.3445 28.207C29.3475 28.1672 29.3508 28.1264 29.3543 28.0851C29.3619 27.9925 29.3696 27.8982 29.3729 27.8102C29.3776 27.6808 29.3735 27.5476 29.3421 27.4216C29.31 27.2928 29.2488 27.1703 29.1403 27.066C29.0329 26.9627 28.8878 26.8865 28.7053 26.8346C28.3753 26.7429 28.0963 26.7458 27.8638 26.8405C27.6311 26.9353 27.4717 27.1111 27.3589 27.3142C27.247 27.5157 27.1751 27.7541 27.1207 27.993C27.0803 28.1702 27.0479 28.3563 27.0171 28.5334C27.0064 28.5944 26.996 28.6543 26.9855 28.7125L26.9852 28.7142C26.8203 29.6854 26.7712 30.6716 26.8389 31.6535C26.8515 32.1841 26.9668 32.7079 27.179 33.1981C27.4183 33.8305 27.8519 34.3785 28.4224 34.7697C28.9941 35.1616 29.6763 35.3776 30.3788 35.389C31.0812 35.4004 31.7707 35.2067 32.356 34.8336C32.9402 34.461 33.393 33.927 33.6545 33.3023C34.0202 32.5064 34.192 31.6409 34.1565 30.7717C34.135 30.1371 34.0991 29.4977 34.0633 28.8615C34.0457 28.5494 34.0281 28.238 34.0124 27.9284C34.0045 27.6181 33.8979 27.3175 33.7068 27.0669C33.5886 26.9086 33.4312 26.7808 33.2488 26.6953Z" fill="#3A3B7B"/>
<path d="M39.7174 31.4764C39.6988 31.499 39.6793 31.5224 39.6589 31.5467C39.5102 30.7236 39.3725 29.9008 39.2345 29.0768C39.185 28.7811 39.1352 28.4842 39.0852 28.1881L39.0796 28.1551L39.0613 28.1266C39.0269 28.0728 39.0234 28.0202 39.0234 27.9079V27.8949L39.0214 27.882C38.984 27.6501 38.8747 27.4342 38.7077 27.2627C38.5412 27.0917 38.325 26.9727 38.0871 26.921C37.8496 26.8648 37.6 26.8772 37.3698 26.9567C37.1402 27.036 36.94 27.1784 36.7943 27.3663C36.6732 27.5104 36.5739 27.6703 36.4995 27.8412C36.3306 28.2092 36.1603 28.5782 35.9895 28.9481L35.9865 28.9545C35.5601 29.8781 35.1308 30.8079 34.7139 31.745L34.7127 31.748C34.4568 32.3556 34.2456 32.9958 34.0351 33.6341C33.993 33.7615 33.951 33.8889 33.9086 34.0159C33.8326 34.2173 33.7994 34.4312 33.8108 34.6451C33.797 34.8366 33.8447 35.0276 33.9477 35.1923C34.0527 35.3603 34.21 35.4926 34.3974 35.5704C34.596 35.654 34.8181 35.6717 35.0284 35.6208C35.2383 35.57 35.4247 35.4537 35.5583 35.2903C35.7288 35.0889 35.8755 34.8693 35.9952 34.6367C36.3483 33.9434 36.6857 33.2418 37.0216 32.5431C37.1516 32.2729 37.2779 32.0309 37.4216 31.7673C37.4315 31.7998 37.4416 31.8315 37.452 31.8633C37.6026 32.4996 37.8568 33.1091 38.2052 33.6695C38.2711 33.7882 38.363 33.8919 38.4744 33.9736C38.5872 34.0563 38.7174 34.1143 38.8559 34.1437C38.9944 34.1732 39.138 34.1733 39.2766 34.1441C39.415 34.115 39.5455 34.0569 39.6584 33.9747L39.8818 33.8142L41.6156 32.4125L41.5131 33.0396C41.3724 33.9016 41.2327 34.7565 41.0843 35.6115C40.9872 35.9905 40.9874 36.3863 41.0847 36.7652C41.1269 36.9784 41.2343 37.1747 41.3933 37.329C41.5537 37.4847 41.759 37.5904 41.9827 37.6326C42.2064 37.6747 42.4382 37.6513 42.6479 37.5655C42.8545 37.4809 43.0303 37.3395 43.1532 37.1592C43.4391 36.8188 43.617 36.4066 43.6659 35.9718C43.7395 35.3578 43.8226 34.7355 43.9058 34.1133C44.0016 33.3961 44.0974 32.6792 44.1783 31.976L44.1786 31.9738C44.2565 31.204 44.2942 30.4311 44.2915 29.6578C44.3086 29.4134 44.2452 29.1699 44.1101 28.9618C43.9746 28.753 43.7738 28.5907 43.5365 28.4978C43.2897 28.3901 43.0134 28.3613 42.7483 28.4158C42.4849 28.4698 42.2464 28.6031 42.0676 28.7961C41.7478 29.08 41.4478 29.3838 41.1695 29.7055L41.1676 29.7076C40.8638 30.071 40.562 30.4415 40.2622 30.8096C40.0799 31.0333 39.8982 31.2566 39.7174 31.4764Z" fill="#3A3B7B"/>
</g>
</g>
<defs>
<filter id="filter0_d_1_2812" x="-1" y="0" width="56" height="56" filterUnits="userSpaceOnUse" color-interpolation-filters="sRGB">
<feFlood flood-opacity="0" result="BackgroundImageFix"/>
<feColorMatrix in="SourceAlpha" type="matrix" values="0 0 0 0 0 0 0 0 0 0 0 0 0 0 0 0 0 0 127 0" result="hardAlpha"/>
<feOffset dy="4"/>
<feGaussianBlur stdDeviation="2"/>
<feComposite in2="hardAlpha" operator="out"/>
<feColorMatrix type="matrix" values="0 0 0 0 0 0 0 0 0 0 0 0 0 0 0 0 0 0 0.25 0"/>
<feBlend mode="normal" in2="BackgroundImageFix" result="effect1_dropShadow_1_2812"/>
<feBlend mode="normal" in="SourceGraphic" in2="effect1_dropShadow_1_2812" result="shape"/>
</filter>
<clipPath id="clip0_1_2812">
<rect width="47" height="29" fill="white" transform="translate(4 9.8468)"/>
</clipPath>
</defs>
</svg>
